<svg id="_Layer_" data-name="&lt;Layer&gt;" xmlns="http://www.w3.org/2000/svg" viewBox="0 0 2074.3 1269"><defs><style>.cls-1{fill:#fff7ee;}.cls-2{fill:#ffe8cc;}.cls-3{fill:#ffb980;opacity:0.2;}.cls-4{fill:#6bb7bf;}.cls-5{fill:#599dad;}.cls-6{fill:#5ea04e;}.cls-7{fill:#82b378;}.cls-8{fill:#e58435;}.cls-9{fill:#f1a34f;}.cls-10{fill:#ffb973;}.cls-11{fill:#d86713;}.cls-12{fill:#5470a8;}.cls-13{fill:#112b46;}.cls-14{fill:#ffc8af;}.cls-15{fill:#191919;}.cls-16{fill:#f7b69c;}.cls-17{fill:#141414;}.cls-18{fill:#1c1c1c;}.cls-19{fill:#56548c;}.cls-20{fill:#f4a2a2;}.cls-21{fill:#d85656;}.cls-22{fill:#ec827d;}</style></defs><title>registrationImg</title><rect class="cls-1" x="896.9" y="120.5" width="586.7" height="1132.9"/><rect class="cls-2" x="1090.6" y="120.5" width="383.5" height="1132.9"/><polygon class="cls-3" points="1763.8 0 2038.5 1266.3 1752.3 1266.3 1763.8 0"/><polygon class="cls-4" points="1738.6 0 1738.6 1259.2 1483.6 1259.2 1483.6 108.2 1738.6 0"/><rect class="cls-5" x="1738.6" width="25.2" height="1259.17"/><path class="cls-5" d="M1639.6,693.6V1842.9h586.7V693.6Zm23.8,27.2h539.1v1095H1663.4Z" transform="translate(-742.6 -583.8)"/><path class="cls-6" d="M920.5,1700.9s21-26.7,1.3-43.6c0,0-14.4-9.5-26.1-8.7,0,0,16.6,30.4,11.2,33.4s-16.3-35.3-16.3-35.3-32.7-3.5-43.2,2.1c0,0,28,25,22.1,26.4s-36.1-23-36.1-23-30.4,5.7-28.8,25.9,12.1,26.5,16.7,26,31.6-11.8,32.2-7.6-15.6,17.6-27,18.2c0,0,21.5,25.8,35.7,18.4s15.5-19.3,24.4-23.7,16.5-4.4,12.8.1-19.8,8.9-24.8,18.7-9.6,16.4,5.1,14,38.7-14.2,39.8-27.7Z" transform="translate(-742.6 -583.8)"/><path class="cls-6" d="M819.5,1678.6s82.7-3.5,100.9,22.3a66,66,0,0,0,16.5,25.2l1.9,5.8s-14.3-16.5-19.5-17.5C919.4,1714.4,927.5,1682.5,819.5,1678.6Z" transform="translate(-742.6 -583.8)"/><path class="cls-6" d="M937,1726.1a57.8,57.8,0,0,1,19,39.9l-3.2.3s-5.7-26.5-15.9-36.8S937,1726.1,937,1726.1Z" transform="translate(-742.6 -583.8)"/><path class="cls-7" d="M993.8,1667.4s-33.4-20.4-17.8-48c0,0,12.5-17,25.8-21.3,0,0-7.1,41.2,0,42.2s4.9-46.6,4.9-46.6,35.1-18.4,48.9-17c0,0-21.8,40.3-14.7,39.3s31.6-41.7,31.6-41.7,36-7.3,41.8,16-3.6,34.9-8.9,36.4-39.6,1-38.7,5.8,24,12.6,36.9,8.2c0,0-14.2,38.3-32.9,36.4s-24.5-14.6-36-15.5-20,2.4-14.2,5.8,25.4,1.1,34.7,9.8,16.9,14-.4,17.9-48.5,1.5-54.7-13.1Z" transform="translate(-742.6 -583.8)"/><path class="cls-6" d="M1097.9,1597.5s-93.4,33-104.1,69.9c0,0,.4,16.5-8.9,35.4v7.3s9.8-24.7,15.1-28.1C1000,1681.9,979.1,1649.9,1097.9,1597.5Z" transform="translate(-742.6 -583.8)"/><path class="cls-6" d="M984.9,1702.8s-14.4,23.9-6.2,52.9l3.7-1.1s-3.6-32,3.9-48.1S984.9,1702.8,984.9,1702.8Z" transform="translate(-742.6 -583.8)"/><path class="cls-6" d="M940.7,1639.3s44-26.9,23.5-63.3c0,0-16.4-22.4-34-28.1,0,0,9.4,54.4,0,55.6s-6.4-61.4-6.4-61.4-46.3-24.3-64.5-22.4c0,0,28.7,53.1,19.3,51.8s-41.6-55-41.6-55-47.5-9.6-55.1,21.1,4.7,46,11.7,48,52.2,1.3,51,7.7-31.7,16.6-48.7,10.9c0,0,18.8,50.5,43.4,48s32.2-19.2,47.5-20.5,26.4,3.2,18.8,7.7-33.4,1.5-45.7,12.9-22.3,18.5.6,23.6,63.9,1.9,72.1-17.3Z" transform="translate(-742.6 -583.8)"/><path class="cls-6" d="M803.5,1547.2s123.1,43.5,137.2,92.1c0,0-.6,21.7,11.7,46.7v9.6s-12.9-32.6-19.9-37.1C932.5,1658.5,960.1,1616.2,803.5,1547.2Z" transform="translate(-742.6 -583.8)"/><path class="cls-6" d="M952.5,1686s19,31.5,8.2,69.7l-4.9-1.4s4.7-42.2-5.2-63.4S952.5,1686,952.5,1686Z" transform="translate(-742.6 -583.8)"/><path class="cls-8" d="M856.1,1744.8c0,51.9,38.6,94,86.1,94a78.9,78.9,0,0,0,17-1.8c39.4-8.6,69.2-46.6,69.2-92.1Z" transform="translate(-742.6 -583.8)"/><path class="cls-9" d="M890.1,1744.8c0,45.5,29.7,83.5,69.1,92.1,39.4-8.6,69.2-46.6,69.2-92.1Z" transform="translate(-742.6 -583.8)"/><path class="cls-8" d="M854.9,1843.5h174.7a12.1,12.1,0,0,0-3.1-8.2,10.2,10.2,0,0,0-7.5-3.4H865.5C859.7,1831.9,854.9,1837.1,854.9,1843.5Z" transform="translate(-742.6 -583.8)"/><path class="cls-10" d="M964,1831.9H952.3c31.6-13.9,44.2-47.7,44.2-87.1h21.4C1017.9,1784.2,995.6,1818,964,1831.9Z" transform="translate(-742.6 -583.8)"/><path class="cls-9" d="M936.7,1843.5h92.9a12.1,12.1,0,0,0-3.1-8.2,10.2,10.2,0,0,0-7.5-3.4h-75C938.1,1831.9,936.7,1837.1,936.7,1843.5Z" transform="translate(-742.6 -583.8)"/><path class="cls-11" d="M855.4,1747.6h174.4a1.4,1.4,0,0,0,1.3-1.4h0a1.4,1.4,0,0,0-1.3-1.4H855.4a1.4,1.4,0,0,0-1.3,1.4h0A1.4,1.4,0,0,0,855.4,1747.6Z" transform="translate(-742.6 -583.8)"/><rect class="cls-12" x="742.6" y="1842.8" width="2074.3" height="10.01" rx="3.5" ry="3.5" transform="translate(2817 3111.8) rotate(-180)"/><path class="cls-5" d="M2430.1,1194h6.3c6.9,0,12.5,6.1,12.5,13.6v86.9c0,7.5-5.6,13.6-12.5,13.6h-6.3c-6.9,0-12.5-6.1-12.5-13.6v-86.9C2417.6,1200.2,2423.2,1194,2430.1,1194Z" transform="translate(-742.6 -583.8)"/><path class="cls-13" d="M1197.6,961.3s-26.1,7.4-50.5,54.5-19.6,245.4-13.4,260.6,67.2,29.1,97.7,9S1197.6,961.3,1197.6,961.3Z" transform="translate(-742.6 -583.8)"/><path class="cls-14" d="M1401.4,1173c16.7-4.3.7-103.8-9.3-145.5s-25.2-72.8-45.7-67.5-18.8,39.9-7.3,81.2S1384.7,1177.3,1401.4,1173Z" transform="translate(-742.6 -583.8)"/><path class="cls-14" d="M1395,1347.5c15.3.1,20.6-112.5,20.9-144.3s-1.7-65.4-18.9-65.6-19.8,33.4-20.2,65.2S1379.7,1347.4,1395,1347.5Z" transform="translate(-742.6 -583.8)"/><path class="cls-14" d="M1395.3,1307.8c17.6-4.1,21.4,27.7,22.3,38.7,1.5,17.8-10,39.6-16.9,40.3s-7.9-40-9.6-41.2-3.1,18.6-9.6,18.6-8-26.6-4.6-37.3S1384.2,1310.4,1395.3,1307.8Z" transform="translate(-742.6 -583.8)"/><path class="cls-14" d="M1306.6,1815.8l-1,21.5a5.5,5.5,0,0,0,5.6,5.5h57.8a5.4,5.4,0,0,0,3.3-9.8c-8.7-6.5-20.9-14.1-32.2-16.2-1-.2-9.2-181.3-18-181.4S1306.6,1815.8,1306.6,1815.8Z" transform="translate(-742.6 -583.8)"/><path class="cls-14" d="M1180.4,1814.5v20.2c0,1.9,4.3,9.8,8.4,11.5,14.6,6.2,42.5,2.5,43.6-2.5s-6.7-16.1-12.9-23.9h-.1c-4-5-7.4-8.8-7.4-8.8s-7.9-175.8-16.1-175.6S1180.4,1814.5,1180.4,1814.5Z" transform="translate(-742.6 -583.8)"/><path class="cls-14" d="M1320.8,1538.4c24.2,0,37.2-134.2,38.3-191.6s-8.8-102.7-38.3-102.7-39.4,45.4-38.3,102.7S1296.6,1538.4,1320.8,1538.4Z" transform="translate(-742.6 -583.8)"/><path class="cls-14" d="M1320.8,1823.6c21.4,0,27.3-189.4,27.3-231.9s-3.3-87.5-27.3-87.5-27.3,44.9-27.3,87.5S1299.4,1823.6,1320.8,1823.6Z" transform="translate(-742.6 -583.8)"/><path class="cls-14" d="M1217.1,1538.3c24.1,2.2,49.3-130.3,55.6-187.3s.6-103.1-28.8-105.8-43.4,41.6-47.5,98.8S1193,1536.1,1217.1,1538.3Z" transform="translate(-742.6 -583.8)"/><path class="cls-14" d="M1194.6,1822.4c21.3,2,41-186.2,44.8-228.6s4.7-87.4-19.2-89.6-31.3,42.3-35.2,84.6S1173.2,1820.5,1194.6,1822.4Z" transform="translate(-742.6 -583.8)"/><path class="cls-14" d="M1198.3,1288.3h159.5l6.6-256.6-11.9-72.4-77.3-23.8-44.6,8.5a52.3,52.3,0,0,0-42.5,53.3l16.3,181.6Z" transform="translate(-742.6 -583.8)"/><path class="cls-14" d="M1153.1,1162.2c16.6,5.3,56.3-88.2,70.2-129.2s17.5-75.7-2.7-82.2-37.4,24-49.8,65.4S1136.5,1156.9,1153.1,1162.2Z" transform="translate(-742.6 -583.8)"/><path class="cls-14" d="M1258.5,901.3v51.6s10.9,6.5,36.4,6.5c13.7,0,16.8-6.5,16.8-6.5V933.8Z" transform="translate(-742.6 -583.8)"/><path class="cls-14" d="M1252.5,862.8c.1,1.9.2,3.6.3,5.3s-.1,1.2-.1,1.9c-1.3,30.6,18.4,63.4,48,67.8h1.7c6.3.8,29.2,2.7,37.6-6.6,9.8-10.8,18.6-30.7,18.6-44.3s-2.5-16.8-2.5-22.3,2.3-17.7,2.3-23.5c.2-27.3-18.2-54.4-50.8-54.4C1258.6,786.9,1251.2,829.9,1252.5,862.8Z" transform="translate(-742.6 -583.8)"/><path class="cls-15" d="M1275.1,865.6c2.2-11.2,11.4-15.4,12.5-22.2s1.8-16.2,4.4-22.9,27-5.2,35.1-3.7,24.6,2.2,31.4-1.3,12-20,5.9-27.4l-2.9,2.9s-11.6-13.6-24.1-15.3l2.4,6.8s-34.7-3.8-47.4-2.1-23.9,13-23.9,13-14.8-5.3-21.3,10.1c-3.7,8.6-19.5,51.3,11.4,106l9.9-42.8Z" transform="translate(-742.6 -583.8)"/><path class="cls-14" d="M1266.9,863.2c-3.9-.9-13.1-4.1-11.4,9.5,2.9,23.5,16.7,22,16.7,22-.8-3.3-2-8-3.1-13.5,3.7-2.2-1-5.2-1.2-7.9a4.3,4.3,0,0,1-.2-1.7C1267.3,869,1267.1,866.2,1266.9,863.2Z" transform="translate(-742.6 -583.8)"/><path class="cls-16" d="M1267.7,871.7s-4.3-4.2-7.6-2.5-.9,9.2,1.6,13.7,5.4,4.9,5.9,3.6-5.2-3.9-3.2-6,4.1-2.5,3.9-3.7Z" transform="translate(-742.6 -583.8)"/><path class="cls-17" d="M1275.7,853.3c-1.2,8.9,0,39.4,0,39.4h-4l-6.3-32.3Z" transform="translate(-742.6 -583.8)"/><path class="cls-16" d="M1318.9,938.6c-14.8.7-34.6-13.8-40.1-20.4s-8.3-23.5-8.3-23.5-4.4.6-7.7-3.9c0,0,.4,7.4,3.3,9.9s4.8,3,5.4,4.8,4,25,16.3,31.6S1318.9,938.6,1318.9,938.6Z" transform="translate(-742.6 -583.8)"/><path class="cls-18" d="M1305.5,1819.7v20.1a3.7,3.7,0,0,0,3.7,3.7H1374a5.9,5.9,0,0,0,3.6-10.6c-9.4-7-24.5-14-35.7-19.4-2.6,2.3-6.6,9.5-11.3,10.4S1305.5,1819.7,1305.5,1819.7Z" transform="translate(-742.6 -583.8)"/><path class="cls-18" d="M1180.4,1817.2v17.6c0,1.9,4.3,9.8,8.4,11.5,14.6,6.2,42.5,2.5,43.6-2.5s-6.7-16.1-12.9-23.9h-.1c-3-2.6-18.4-1.2-21,.1s-8.6,4.9-9.9,4.7S1180.4,1817.2,1180.4,1817.2Z" transform="translate(-742.6 -583.8)"/><polygon class="cls-19" points="536 735 536 747.4 477 1218.7 431.3 1218.7 451.8 735 536 735"/><polygon class="cls-19" points="619.2 735 600.1 1218.7 555.1 1218.7 536 747.4 536 735 619.2 735"/><polygon class="cls-20" points="576.3 356.7 569.1 370.1 569.1 369.2 569.1 356.1 571.9 355.7 576.3 356.7"/><path class="cls-20" d="M1282.8,938.2l-7.2,21.2c-11-8.8-25.5-19-25.5-19l8.5-13.7Z" transform="translate(-742.6 -583.8)"/><polygon class="cls-21" points="577.7 363.6 580.2 375.6 569.1 370.4 569.1 370.1 576.3 356.7 577.7 363.6"/><path class="cls-22" d="M1389.9,1010.8c9.5,31,15.1,65.9,15.1,65.9s-6.5,10.9-34.9,16.1h-.3c.4-34.9.4-62.6-.2-72.3a186.8,186.8,0,0,0-15.1-62.3C1369,963.5,1380.5,979.7,1389.9,1010.8Z" transform="translate(-742.6 -583.8)"/><path class="cls-22" d="M1215.7,946.5c20.6,2.1,31.3,21,24.4,50.1-8,33.7-35.1,96.3-35.1,96.3l-5-1c-41.1-8.5-46.9-21.6-46.9-21.6,11.5-50.1,31.1-104.7,47-116.4C1204.4,950.7,1209.9,948.3,1215.7,946.5Z" transform="translate(-742.6 -583.8)"/><path class="cls-22" d="M1322.8,959.4l-2.5-12,34.3,10.9a186.8,186.8,0,0,1,15.1,62.3c.6,9.7.5,37.4.2,72.3-1,89.5-3.9,226-3.9,226H1190.9s7.8-101.6,9.1-132.7-5.5-82.2-5.5-82.2l5.5-12.1,5,1s27-62.5,35.1-96.3c6.9-29.2-3.8-48-24.4-50.1,16.1-5.1,34.4-6,34.4-6s14.6,10.2,25.5,19l7.2-21.2,18.5,37.7,10.5-23v1.2Z" transform="translate(-742.6 -583.8)"/><path class="cls-14" d="M1176.3,1339c15.4-1.3,10.2-114.9,7.6-146.9s-7.8-65.6-25.1-64.1-16.8,35.4-14.2,67.4S1160.9,1340.3,1176.3,1339Z" transform="translate(-742.6 -583.8)"/><path class="cls-14" d="M1174.6,1309.6c-18.2.2-14.3,32.3-12.6,43.2,2.8,17.8,26.7,32.6,33.6,31.6s-9.3-37.3-7.9-38.8,7.5,17.5,13.9,15.9,1.5-27.9-4.5-37.6S1186.1,1309.5,1174.6,1309.6Z" transform="translate(-742.6 -583.8)"/><path class="cls-13" d="M1242.9,941c28.4,15,24.9,64.4,8.5,123.2-13.6,48.7-43.5,158.6-60.5,182.7v-35.7s14.6-62.2,25.6-118.4c10-51.1,39.4-127.5-4.2-145.2,0,0,7.3-7,15.9-8.9A20,20,0,0,1,1242.9,941Z" transform="translate(-742.6 -583.8)"/></svg>